<?xml version="1.0" encoding="utf-8"?>
<!-- Generator: Adobe Illustrator 18.1.1, SVG Export Plug-In . SVG Version: 6.00 Build 0)  -->
<svg version="1.1" id="Layer_1" xmlns="http://www.w3.org/2000/svg" xmlns:xlink="http://www.w3.org/1999/xlink" x="0px" y="0px"
	 viewBox="0 0 397.2 67.1" enable-background="new 0 0 397.2 67.1" xml:space="preserve">
<g>
	<path fill="#B1B3B5" d="M8.8,66.1c-3.2,0-5.7-0.7-7.8-2.7l1.8-1.8c1.5,1.6,3.5,2.2,5.9,2.2c3.1,0,5-1.1,5-3.3c0-1.7-1-2.6-3.2-2.8
		l-3.1-0.3c-3.7-0.3-5.6-2-5.6-5.1c0-3.5,2.9-5.5,7-5.5c2.7,0,5.1,0.7,6.8,2l-1.8,1.8c-1.3-1-3.1-1.5-5-1.5c-2.8,0-4.2,1.2-4.2,3.1
		c0,1.6,0.9,2.6,3.3,2.8l3,0.3c3.3,0.3,5.6,1.6,5.6,5.1C16.4,64,13.3,66.1,8.8,66.1"/>
	<path fill="#B1B3B5" d="M20.4,57.2c0,4.2,2,6.5,5.6,6.5c2.2,0,3.5-0.7,5-2.2l1.9,1.7c-1.9,1.9-3.7,2.9-6.9,2.9c-5,0-8.3-3-8.3-9.7
		c0-6.1,3-9.7,7.8-9.7c4.9,0,7.8,3.5,7.8,9.1v1.3H20.4z M29.8,52c-0.7-1.7-2.4-2.8-4.4-2.8s-3.7,1.1-4.4,2.8c-0.4,1-0.5,1.6-0.6,3.2
		h10C30.3,53.6,30.2,53,29.8,52"/>
	<polygon fill="#B1B3B5" points="41.7,65.9 39.2,65.9 32.3,47 35.3,47 40.5,62.2 45.7,47 48.6,47 	"/>
	<path fill="#B1B3B5" d="M50.4,57.2c0,4.2,2,6.5,5.6,6.5c2.2,0,3.5-0.7,5-2.2l1.9,1.7c-1.9,1.9-3.7,2.9-6.9,2.9c-5,0-8.3-3-8.3-9.7
		c0-6.1,3-9.7,7.8-9.7c4.9,0,7.8,3.5,7.8,9.1v1.3H50.4z M59.8,52c-0.7-1.7-2.4-2.8-4.4-2.8c-2,0-3.7,1.1-4.4,2.8
		c-0.4,1-0.5,1.6-0.6,3.2h10C60.3,53.6,60.3,53,59.8,52"/>
	<path fill="#B1B3B5" d="M75.5,50.6c-1-1-1.8-1.4-3.3-1.4c-2.8,0-4.5,2.2-4.5,5.1v11.6H65V47h2.8v2.3c1-1.6,3.1-2.5,5.3-2.5
		c1.8,0,3.2,0.4,4.5,1.8L75.5,50.6z"/>
	<path fill="#B1B3B5" d="M90.2,65.9v-1.8c-1.5,1.5-2.9,2-5.5,2c-2.6,0-4.2-0.5-5.3-1.7c-0.9-0.9-1.4-2.3-1.4-3.8
		c0-3.3,2.3-5.5,6.5-5.5h5.7v-1.8c0-2.8-1.4-4.2-4.8-4.2c-2.4,0-3.7,0.6-4.8,2.2l-1.9-1.7c1.7-2.2,3.6-2.8,6.7-2.8
		c5.1,0,7.6,2.2,7.6,6.3v12.8H90.2z M90.2,57.2h-5.3c-2.8,0-4.2,1.2-4.2,3.3s1.3,3.2,4.3,3.2c1.6,0,3-0.1,4.2-1.3
		c0.7-0.6,1-1.7,1-3.3V57.2z"/>
	<path fill="#B1B3B5" d="M99.3,65.9c-3.3,0-4.8-2.2-4.8-5V38.6h2.8v22.2c0,1.8,0.6,2.8,2.5,2.8h1.5v2.4H99.3z"/>
	<path fill="#0090D0" d="M115.5,65.9V53.8c0-2.7-1.7-3.7-3.3-3.7c-1.6,0-3.3,0.9-3.3,3.7v12.1h-5v-20h4.9v1.8c1.3-1.4,3.2-2.1,5-2.1
		c2,0,3.6,0.7,4.7,1.8c1.6,1.6,2,3.5,2,5.7v12.8H115.5z"/>
	<path fill="#0090D0" d="M120,47.4c1.5,1.9,1.7,4,1.7,5.7v12.8h3.3v-20h-5V47.4z"/>
	<rect x="120" y="38.4" fill="#0090D0" width="5.1" height="4.1"/>
	<path fill="#0090D0" d="M139.1,47.4c-1.1-1.1-2.7-1.8-4.7-1.8c-1.8,0-3.7,0.7-5,2.1v-1.8h-3.1v20h3.2V53.8c0-2.7,1.8-3.7,3.3-3.7
		c1.6,0,3.3,0.9,3.3,3.7v12.1h5V53.1C141.1,50.9,140.7,49,139.1,47.4"/>
	<path fill="#0090D0" d="M154.9,55.2c0-5.5-3.2-9.6-8.7-9.6c-2.1,0-4,0.6-5.4,1.8c1.4,1.9,1.6,4,1.6,5.6v12.2
		c1.3,0.6,2.8,0.8,4.4,0.8c3.6,0,5.6-1.1,7.6-3.2l-3-3c-1.3,1.3-2.3,1.9-4.5,1.9c-2.8,0-4.4-1.9-4.4-4.5h12.5V55.2z M142.4,54
		c0-0.9,0.2-1.4,0.5-2.2c0.5-1.2,1.7-2.1,3.3-2.1c1.7,0,2.8,0.9,3.3,2.1c0.3,0.7,0.4,1.3,0.5,2.2H142.4z"/>
	<path fill="#0090D0" d="M159.2,53.7l-3.1-0.3c0.1,0.6,0.1,1.2,0.1,1.8v2.2v0.3l2,0.2c1.6,0.2,2.1,0.8,2.1,1.8
		c0,1.5-1.8,2.1-3.5,2.1c-0.6,0-1.2,0-1.9-0.2l0.4,0.4l0.9,0.9l-0.9,0.9c-0.8,0.8-1.5,1.4-2.4,1.9c1.2,0.3,2.5,0.3,3.8,0.3
		c4.7,0,8.5-2.1,8.5-6.5C165.1,56.2,163.1,54.1,159.2,53.7"/>
	<path fill="#0090D0" d="M155.1,50.1c0.4-0.2,1-0.3,1.7-0.3c1.7,0,3.5,0.3,4.6,1.3l3.1-3.1c-1.9-1.8-4.5-2.3-7.6-2.3
		c-1.6,0-3,0.3-4.3,1C153.6,47.5,154.5,48.7,155.1,50.1"/>
</g>
<g>
	<path fill="#284988" d="M24.7,28.2v6.6c-0.9,0.1-2.1,0.3-3.4,0.5c-1.4,0.2-3.1,0.4-5,0.4c-7,0-11.5-2.6-13.6-7.6
		c-0.7-1.7-1.1-4.3-1.1-8.1v-2.2c0-4.8,0.7-7.8,1.9-9.6C5.7,4,10,2,16.3,2c2.6,0,5.4,0.4,8.4,0.9v6.5c-3.3-0.5-5.8-0.7-7.6-0.7
		c-3,0-4.7,0.3-5.9,1.5c-1,0.8-1.5,2.8-1.5,6.5v5c0,3.5,0.7,4.9,1.3,5.6C12,28.4,13.8,29,17,29h0.8C19.3,29,21.6,28.7,24.7,28.2z"/>
	<path fill="#284988" d="M34.8,25.2v0.9c0,1.6,0.5,2.6,1.5,2.9c1.3,0.4,3.5,0.3,3.8,0.3v6.1c-0.7,0-1.1,0-1.8,0
		c-5.1,0-8.5-1.8-10-5.4c-0.4-1-0.7-2-0.7-3c0-0.4,0-0.8,0-1.1v-0.3V2.3L34.8,1V25.2z"/>
	<path fill="#284988" d="M42.4,25.4V11.8h7.4v14.9c0,1.5,0.7,2.4,2.1,2.7c0.4,0,0.9,0.1,1.4,0c0.8,0,2-0.3,3.2-1l0-16.6h7.3v23.5h-6
		l-0.3-0.4c-0.1-0.3-0.3-0.6-0.4-1.1c-0.6,0.2-3,1.6-6.5,1.8c-2.9,0.1-5.4-0.3-7.3-3.3C42.6,31,42.4,29.1,42.4,25.4z"/>
	<path fill="#284988" d="M76.2,35.6c-3.5,0-7.2-0.4-9-0.8l-0.7-6.3c1.6,0.4,11,2.2,11.9,0c0.9-2.3-6.9-1.9-10.4-5.2
		c-1.8-1.5-1.8-3.6-1.7-5.1c0.7-6.1,6.5-6.6,9.9-6.7c3.2-0.1,6.3,0.3,8.1,0.6l0.7,6.2c-2.2-0.5-10.1-1.7-11,0.3
		c-1,2.4,7.3,2.2,10.4,5.2c1.7,1.7,1.7,3.6,1.6,5.2C85.4,35,79.6,35.5,76.2,35.6z"/>
	<path fill="#284988" d="M104.8,35.4h-1.7c-5.2,0-10.8,0.4-10.8-8.2c0-0.1,0-2.5,0-4.8v-4.5h-3.5v-6h3.5V6l7.2-1.2v7.1h5.5l-0.7,6
		h-4.8v6.7v-6.7v8.3c0,1.5,0,2.7,1.6,3.2c1.3,0.6,3.6,0.7,3.8,0.7V35.4z"/>
	<path fill="#284988" d="M128.6,21.5v4.1v0.1h-13.2v0.7c0,1.6,0.5,2.6,1.5,2.9c0.7,0.2,1.4,0.3,2.6,0.3h0.6c2.5,0,5.2-0.3,7.9-0.8h0
		v5.9c0,0.1-1.2,0.3-3.7,0.7c-1.5,0.2-3.3,0.3-5.3,0.3c-5.2,0-8.5-1.8-10-5.2c-0.6-1.4-0.8-2.9-0.8-4.3v-5.6c0-4.1,1.7-6.9,5.2-8.2
		c1.6-0.5,3.2-0.7,4.9-0.7c4.8,0,8,1.6,9.5,4.8C128.3,17.5,128.6,19.2,128.6,21.5z M120.3,17.5c-0.5-0.4-1.2-0.5-1.9-0.5
		c-2.1,0-2.9,0.9-2.9,2.7v1.1h5.9v-0.4C121.3,18.8,121,17.8,120.3,17.5z"/>
	<path fill="#284988" d="M146.2,11.5l0.7,6.2c-0.9,0-2.5,0.1-3.1,0.2l-0.5,0.1c-1.1,0.2-2.5,0.7-4.4,1.4v1.2v14.8h-7.2V11.7h5.9
		c0,0.2,0.1,0.4,0.2,0.5c0.1,0.3,0.3,0.7,0.4,1.2c0.6-0.2,0.8-0.3,1.7-0.6c1-0.4,2.1-0.7,3.5-1C144.3,11.6,145.2,11.5,146.2,11.5z"
		/>
	<path fill="#284988" d="M172.4,28.2v6.6c-0.9,0.1-2.1,0.3-3.4,0.5c-1.4,0.2-3.1,0.4-5,0.4c-7,0-11.5-2.6-13.6-7.6
		c-0.7-1.7-1.1-4.3-1.1-8.1v-2.2c0-4.8,0.7-7.8,1.9-9.6C153.4,4,157.7,2,164,2c2.6,0,5.4,0.4,8.4,0.9v6.5c-3.3-0.5-5.8-0.7-7.6-0.7
		c-3,0-4.7,0.3-5.9,1.5c-1,0.8-1.5,2.8-1.5,6.5v5c0,3.5,0.7,4.9,1.3,5.6c0.9,1.1,2.7,1.7,5.9,1.7h0.8C167,29,169.3,28.7,172.4,28.2z
		"/>
	<path fill="#284988" d="M195.3,21.4v4.3c0,4.5-1.6,7.5-4.8,8.9c-1.6,0.7-3.5,1-5.7,1c-4.8,0-8-1.6-9.4-4.7c-0.7-1.3-1-2.9-1-4.8V21
		c0-4.6,2-7.5,5.9-8.8c1.4-0.4,2.7-0.7,4.2-0.7h0.7c5.1,0,8.1,1.9,9.6,5.6C195.1,18.3,195.3,19.7,195.3,21.4z M186.5,17.9
		c-0.4-0.2-0.9-0.3-1.4-0.3h-0.6c-1.3,0-2.2,0.5-2.7,1.6c-0.1,0.4-0.2,0.8-0.2,1.5v5.9c0,2,1.1,3,3.2,3h0.2c1.7,0,2.7-0.7,3.1-2.2
		c0-0.4,0-0.8,0-1.5v-4.8C188,19.3,187.5,18.2,186.5,17.9z"/>
	<path fill="#284988" d="M218.4,21.6v13.7h-7.3V20.3c0-1.5-0.7-2.3-2.1-2.6c-0.4,0-0.9-0.1-1.4,0c-0.8,0.1-1.9,0.3-3.1,1v16.7h-7.2
		V11.8h6l0.2,0.4c0.1,0.3,0.3,0.6,0.4,1.1c0.5-0.2,2.8-1.7,6.4-1.8c2.8-0.1,5.3,0.2,7.1,3.2C218.2,16,218.4,17.9,218.4,21.6z"/>
	<path fill="#284988" d="M237.7,35.4H236c-5.2,0-10.8,0.4-10.8-8.2c0-0.1,0-2.5,0-4.8v-4.5h-3.5v-6h3.5V6l7.2-1.2v7.1h5.5l-0.7,6
		h-4.8v6.7v-6.7v8.3c0,1.5,0,2.7,1.6,3.2c1.3,0.6,3.6,0.7,3.8,0.7V35.4z"/>
	<path fill="#284988" d="M255.5,11.5l0.7,6.2c-0.9,0-2.5,0.1-3.1,0.2l-0.5,0.1c-1.1,0.2-2.5,0.7-4.4,1.4v1.2v14.8H241V11.7h5.9
		c0,0.2,0.1,0.4,0.2,0.5c0.1,0.3,0.3,0.7,0.4,1.2c0.6-0.2,0.8-0.3,1.7-0.6c1-0.4,2.1-0.7,3.5-1C253.6,11.6,254.6,11.5,255.5,11.5z"
		/>
	<path fill="#284988" d="M278.6,21.4v4.3c0,4.5-1.6,7.5-4.8,8.9c-1.6,0.7-3.5,1-5.7,1c-4.8,0-8-1.6-9.4-4.7c-0.7-1.3-1-2.9-1-4.8V21
		c0-4.6,2-7.5,5.9-8.8c1.4-0.4,2.7-0.7,4.2-0.7h0.7c5.1,0,8.2,1.9,9.6,5.6C278.4,18.3,278.6,19.7,278.6,21.4z M269.8,17.9
		c-0.4-0.2-0.9-0.3-1.4-0.3h-0.6c-1.3,0-2.2,0.5-2.7,1.6c-0.1,0.4-0.2,0.8-0.2,1.5v5.9c0,2,1.1,3,3.2,3h0.2c1.7,0,2.7-0.7,3.1-2.2
		c0-0.4,0-0.8,0-1.5v-4.8C271.4,19.3,270.9,18.2,269.8,17.9z"/>
	<path fill="#284988" d="M288.1,25.2v0.9c0,1.6,0.5,2.6,1.5,2.9c1.3,0.4,3.5,0.3,3.8,0.3v6.1c-0.7,0-1.1,0-1.8,0
		c-5.1,0-8.5-1.8-10-5.4c-0.4-1-0.7-2-0.7-3c0-0.4,0-0.8,0-1.1v-0.3V2.3l7.3-1.3V25.2z"/>
</g>
</svg>
